<svg width="534" height="856" viewBox="0 0 534 856" fill="none" xmlns="http://www.w3.org/2000/svg">
<path d="M456.573 92.2394C449.537 8.19386 369.409 5.4575 345.175 6.63023C325.632 7.80296 290.844 11.712 272.474 14.4484C254.884 17.1848 222.833 23.0484 206.026 28.5212C188.437 33.9939 172.802 44.5484 160.685 58.6212C157.558 61.7485 154.431 65.2666 152.086 69.5666C145.441 80.903 138.796 93.803 136.842 111.785C135.669 119.603 135.669 127.421 136.842 135.239C137.233 141.494 138.405 147.749 139.578 154.394C145.832 185.667 165.375 209.903 194.3 222.803C190.391 228.276 186.873 235.312 185.31 243.912C175.929 252.512 169.675 264.63 168.111 278.703C166.548 292.776 167.721 320.53 170.457 343.203C175.147 379.167 182.574 395.194 195.472 396.367C200.163 396.758 213.452 398.321 230.651 354.54C231.823 358.449 232.996 362.749 234.168 366.658C234.168 368.221 234.559 371.349 235.341 374.085C235.732 375.649 236.904 380.34 237.686 382.294C238.859 389.331 239.25 393.631 239.25 394.021L240.031 401.84L241.595 402.231C241.595 403.794 241.595 405.358 241.595 406.14V407.312C241.986 421.776 250.976 445.621 272.474 448.749C274.819 449.14 277.555 449.14 279.9 449.14C303.743 449.14 315.86 430.376 322.114 420.994C322.896 419.821 323.678 418.649 324.459 417.476C325.241 416.303 326.023 415.521 326.804 414.349H327.195L329.931 412.785C329.931 412.785 330.322 412.394 331.495 412.003L331.886 411.612C335.404 409.267 344.394 403.403 355.338 393.24C365.501 388.158 370.973 378.776 372.927 374.867C383.481 362.358 392.08 348.676 399.115 334.603C401.461 335.385 404.197 335.776 407.324 335.385C419.441 333.04 425.304 317.794 427.649 284.176C428.821 263.067 428.04 237.658 425.694 224.367C423.349 211.076 417.095 200.912 409.278 194.267C443.284 176.676 460.482 139.93 456.573 92.2394Z" fill="white"/>
<path opacity="0.75" d="M158.789 812.199C42.9004 789.873 20.535 486.593 53.8868 313.469C87.2386 140.345 208.222 18.0985 324.111 40.4241C440 62.7498 506.909 221.193 473.557 394.317C440.206 567.441 274.678 834.524 158.789 812.199Z" fill="url(#paint0_radial_110_1289)"/>
<path opacity="0.75" d="M320.16 412.394C313.906 420.994 303.352 443.276 277.555 439.758C261.529 437.412 255.275 417.085 254.884 407.312C254.884 405.749 253.712 388.158 254.884 386.594C259.575 379.949 307.652 399.103 321.332 399.494C331.104 399.885 326.023 403.794 320.16 412.394Z" fill="url(#paint1_radial_110_1289)"/>
<path opacity="0.75" d="M364.328 240.394C368.237 263.067 394.425 328.349 408.887 326.003C423.349 323.267 423.74 249.385 419.441 226.712C415.141 204.039 397.161 192.312 383.09 194.658C369.018 197.003 360.419 217.721 364.328 240.394Z" fill="url(#paint2_linear_110_1289)"/>
<path d="M403.067 266.054C414.918 262.746 420.152 244.387 414.755 225.048C409.359 205.708 395.376 192.712 383.524 196.02C371.673 199.328 366.439 217.687 371.836 237.026C377.232 256.366 391.215 269.361 403.067 266.054Z" fill="#26283B"/>
<path d="M412.014 262.676C404.587 360.403 328.759 404.967 328.759 404.967L328.322 404.902C320.744 409.077 307.81 411.488 293.253 410.842C271.32 409.87 253.671 402.314 252.631 393.702L252.148 393.63C252.148 393.63 250.194 366.267 238.468 338.512C233.664 327.157 227.071 318.35 220.587 309.688C209.661 295.091 199.044 280.908 197.818 255.639C196.645 227.494 220.488 215.376 220.488 215.376L335.404 190.358C335.404 190.358 419.441 164.948 412.014 262.676Z" fill="url(#paint3_linear_110_1289)"/>
<path d="M365.11 201.303C367.064 211.076 378.008 252.512 313.515 254.467C286.154 255.249 295.144 225.148 267.783 218.894C258.011 216.939 286.154 197.003 313.124 192.312C340.094 187.621 363.546 191.53 365.11 201.303Z" fill="#26283B"/>
<path d="M399.506 189.576C382.308 196.221 351.82 204.821 329.541 210.685C312.733 214.985 271.301 221.239 251.757 223.194C209.544 227.494 162.248 194.658 153.649 152.83L150.913 140.321C142.314 98.8848 168.111 51.9757 212.28 38.2938C228.305 33.212 260.357 27.3484 277.164 24.612C294.362 21.8756 329.15 17.9665 349.084 16.7938C391.689 14.8393 444.847 29.6938 450.319 93.0211C453.446 135.63 438.984 174.721 399.506 189.576Z" fill="url(#paint4_linear_110_1289)"/>
<path d="M248.24 223.585C248.24 223.585 206.807 216.158 198.599 173.939C190 130.548 200.163 108.658 204.853 100.058C210.325 89.8939 217.752 78.1666 205.244 66.4393C192.736 54.712 175.147 55.8847 163.812 74.6484C153.258 92.6302 144.268 111.394 152.477 152.439C160.685 193.485 193.909 222.803 248.24 223.585Z" fill="#26283B"/>
<path d="M326.414 63.312C326.414 63.312 388.171 53.5393 410.841 59.012C433.512 64.4847 435.466 97.712 435.075 110.221C434.684 122.73 426.867 151.267 410.451 162.994C394.034 174.721 297.489 197.785 263.093 197.785C228.696 197.785 223.224 156.739 224.006 137.585C224.397 118.039 232.996 91.4575 254.103 81.6847C270.128 74.2575 303.352 66.4393 326.414 63.312Z" fill="#26283B"/>
<path d="M265.829 193.485C265.829 193.485 267.392 207.558 274.428 211.858C281.855 216.158 281.855 189.576 321.723 176.285L265.829 193.485Z" fill="#26283B"/>
<path d="M186.092 131.721C185.31 148.53 189.218 162.212 181.792 163.385C174.756 164.167 165.375 145.794 166.157 128.985C166.939 112.176 179.056 99.6666 185.701 102.794C194.3 106.703 186.873 114.912 186.092 131.721Z" fill="url(#paint5_linear_110_1289)"/>
<path d="M415.532 115.303C413.187 131.721 399.897 143.448 385.435 141.494C370.973 139.539 361.592 124.685 363.937 107.876C366.282 91.4575 379.572 79.7303 394.034 81.6848C408.496 84.0303 417.877 98.8848 415.532 115.303Z" fill="url(#paint6_radial_110_1289)"/>
<path d="M322.505 132.503C320.16 148.921 306.87 160.648 292.408 158.694C278.337 156.739 268.565 141.885 270.91 125.076C273.255 108.658 286.545 96.9302 301.007 98.8848C315.469 100.839 324.85 116.085 322.505 132.503Z" fill="url(#paint7_radial_110_1289)"/>
<path d="M341.657 39.4666C341.657 39.4666 317.814 41.812 309.997 42.9848C301.398 44.1575 276.382 48.0666 276.382 48.0666C272.474 48.4575 266.611 46.112 263.874 42.2029C261.138 38.2939 262.311 35.1666 266.22 34.3848C274.037 33.212 289.672 30.4757 297.88 29.3029C306.479 28.1302 331.495 25.7848 331.495 25.7848C335.404 25.3938 341.267 27.7393 344.003 31.6484C346.739 35.1666 345.566 38.6848 341.657 39.4666Z" fill="#26283B"/>
<path d="M330.904 38.575C330.904 38.575 313.777 40.314 308.16 41.1963C301.983 42.0761 284.009 45.0203 284.009 45.0203C281.201 45.3103 276.999 43.4787 275.048 40.4479C273.097 37.4171 273.949 35.003 276.758 34.4108C282.375 33.5285 293.609 31.4617 299.507 30.5806C305.685 29.7008 323.653 27.9655 323.653 27.9655C326.461 27.6755 330.663 29.5071 332.614 32.5379C334.567 35.2664 333.713 37.9828 330.904 38.575Z" fill="url(#paint8_radial_110_1289)"/>
<path d="M356.12 379.167C356.12 389.33 332.277 397.93 302.961 397.93C273.646 397.93 250.194 389.721 250.194 379.167C250.194 368.612 270.91 386.985 299.835 386.985C328.759 386.985 349.084 382.685 356.12 379.167Z" fill="#26283B"/>
<path d="M352.993 385.421L315.078 390.894L274.428 389.721L250.585 380.73C250.585 380.73 248.631 374.476 248.631 372.912C247.849 369.394 247.458 365.485 247.458 365.485C249.412 375.258 274.819 383.858 308.434 383.858C336.967 383.858 361.201 377.994 367.846 369.785C367.846 370.176 363.155 381.121 352.993 385.421Z" fill="#26283B"/>
<path d="M236.553 306.298C248.405 302.991 253.638 284.631 248.242 265.292C242.845 245.953 228.863 232.957 217.011 236.265C205.159 239.573 199.926 257.932 205.322 277.271C210.719 296.61 224.701 309.606 236.553 306.298Z" fill="#26283B"/>
<path d="M233.064 293.794C240.684 291.668 244.048 279.864 240.579 267.431C237.109 254.998 228.12 246.642 220.5 248.769C212.881 250.896 209.516 262.699 212.986 275.132C216.455 287.566 225.444 295.921 233.064 293.794Z" fill="#00FAA9"/>
<path d="M233.387 316.23C233.387 316.23 241.204 316.23 247.849 311.539C254.494 306.849 258.011 295.121 258.011 295.121C258.011 295.121 258.011 289.258 261.92 288.867C265.829 288.476 276.382 317.403 274.037 348.676C271.692 379.558 245.113 358.058 245.113 358.058C245.113 358.058 239.25 334.994 227.524 321.312C215.797 307.63 233.387 316.23 233.387 316.23Z" fill="#26283B"/>
<path opacity="0.75" d="M242.377 291.212C239.641 316.23 216.188 388.94 200.163 386.985C184.528 385.031 178.665 304.894 181.401 279.876C184.137 254.858 202.899 240.785 218.534 242.739C234.168 244.694 245.113 266.194 242.377 291.212Z" fill="url(#paint9_linear_110_1289)"/>
<path opacity="0.75" d="M316.642 132.503C315.86 141.494 308.825 148.139 301.007 147.358C293.19 146.576 287.718 138.758 288.499 129.767C289.281 120.776 296.317 114.13 304.134 114.912C311.561 115.303 317.424 123.512 316.642 132.503Z" fill="url(#paint10_linear_110_1289)"/>
<path opacity="0.75" d="M408.887 112.958C408.105 121.948 401.07 128.594 393.252 127.812C385.435 127.03 379.963 119.212 380.744 110.221C381.526 101.23 388.562 94.5848 396.379 95.3666C404.197 96.1484 410.06 103.967 408.887 112.958Z" fill="url(#paint11_linear_110_1289)"/>
<defs>
<radialGradient id="paint0_radial_110_1289" cx="0" cy="0" r="1" gradientUnits="userSpaceOnUse" gradientTransform="translate(283.252 400.227) rotate(108.76) scale(369.019 177.76)">
<stop offset="0.160701" stop-color="#00FF99"/>
<stop offset="0.289332" stop-color="#39B181"/>
<stop offset="0.572182" stop-color="#39B181" stop-opacity="0.35"/>
<stop offset="1" stop-color="#26283B" stop-opacity="0"/>
</radialGradient>
<radialGradient id="paint1_radial_110_1289" cx="0" cy="0" r="1" gradientUnits="userSpaceOnUse" gradientTransform="translate(286.567 409.749) rotate(106.557) scale(25.5931 21.6161)">
<stop stop-color="#00FFA3"/>
<stop offset="1" stop-color="#00C2FF"/>
</radialGradient>
<linearGradient id="paint2_linear_110_1289" x1="363.383" y1="254.388" x2="421.715" y2="256.534" gradientUnits="userSpaceOnUse">
<stop stop-color="#00C2FF"/>
<stop offset="1" stop-color="#00FFA3"/>
</linearGradient>
<linearGradient id="paint3_linear_110_1289" x1="197.776" y1="289.277" x2="410.991" y2="306.25" gradientUnits="userSpaceOnUse">
<stop stop-color="#00C2FF"/>
<stop offset="1" stop-color="#00FFA3"/>
</linearGradient>
<linearGradient id="paint4_linear_110_1289" x1="149.268" y1="110.948" x2="446.209" y2="146.804" gradientUnits="userSpaceOnUse">
<stop stop-color="#00C2FF"/>
<stop offset="1" stop-color="#00FFA3"/>
</linearGradient>
<linearGradient id="paint5_linear_110_1289" x1="166.111" y1="130.159" x2="189.775" y2="130.92" gradientUnits="userSpaceOnUse">
<stop stop-color="#00C2FF"/>
<stop offset="1" stop-color="#00FFA3"/>
</linearGradient>
<radialGradient id="paint6_radial_110_1289" cx="0" cy="0" r="1" gradientUnits="userSpaceOnUse" gradientTransform="translate(389.991 111.674) rotate(93.3332) scale(28.114 24.1182)">
<stop stop-color="#38AE75"/>
<stop offset="1" stop-color="#26283B"/>
</radialGradient>
<radialGradient id="paint7_radial_110_1289" cx="0" cy="0" r="1" gradientUnits="userSpaceOnUse" gradientTransform="translate(296.967 128.814) rotate(92.577) scale(28.1145 24.6167)">
<stop stop-color="#38AE75"/>
<stop offset="1" stop-color="#26283B"/>
</radialGradient>
<radialGradient id="paint8_radial_110_1289" cx="0" cy="0" r="1" gradientUnits="userSpaceOnUse" gradientTransform="translate(304.12 36.5011) rotate(83.6558) scale(7.93395 25.4378)">
<stop stop-color="#38AE75"/>
<stop offset="0.969618" stop-color="#26283B"/>
</radialGradient>
<linearGradient id="paint9_linear_110_1289" x1="180.753" y1="308.402" x2="242.678" y2="310.606" gradientUnits="userSpaceOnUse">
<stop stop-color="#00C2FF"/>
<stop offset="1" stop-color="#00FFA3"/>
</linearGradient>
<linearGradient id="paint10_linear_110_1289" x1="288.425" y1="129.694" x2="316.548" y2="131.719" gradientUnits="userSpaceOnUse">
<stop stop-color="#00C2FF"/>
<stop offset="1" stop-color="#00FFA3"/>
</linearGradient>
<linearGradient id="paint11_linear_110_1289" x1="380.67" y1="110.149" x2="408.872" y2="112.185" gradientUnits="userSpaceOnUse">
<stop stop-color="#00C2FF"/>
<stop offset="1" stop-color="#00FFA3"/>
</linearGradient>
</defs>
</svg>
